<svg width="30" height="30" viewBox="0 0 30 30" fill="none" xmlns="http://www.w3.org/2000/svg">
<path d="M16.8134 0V26.3731H22.8222L22.8224 10.4161C20.7519 9.67247 19.271 7.69132 19.271 5.3649C19.271 2.40221 21.6728 0.000381749 24.6355 0.000381749C27.5982 0.000381749 30 2.40221 30 5.3649C30 7.69096 28.5195 9.67185 26.4495 10.4158L26.4488 30.0007H13.1868V3.62661H7.17811L7.17854 19.5859C9.24858 20.3296 10.729 22.3099 10.729 24.636C10.729 27.5987 8.32719 30.0014 5.36452 30.0014C2.40186 30.0014 0 27.5987 0 24.636C0 22.3096 1.48093 20.329 3.55147 19.5856L3.5515 0H16.8134ZM5.36452 22.898C4.40475 22.898 3.62661 23.6762 3.62661 24.636C3.62661 25.5961 4.40508 26.3748 5.36452 26.3748C6.32396 26.3748 7.10243 25.5961 7.10243 24.636C7.10243 23.6762 6.32429 22.898 5.36452 22.898ZM24.6355 3.62699C23.6757 3.62699 22.8976 4.40513 22.8976 5.3649C22.8976 6.31695 23.663 7.09069 24.6114 7.10361L24.778 7.098C25.6708 7.02544 26.3734 6.277 26.3734 5.3649C26.3734 4.40513 25.5952 3.62699 24.6355 3.62699Z" fill="#011580"/>
</svg>
