<svg fill="none" height="25" viewBox="0 0 34 25" width="34" xmlns="http://www.w3.org/2000/svg"><path d="m.189137 5.12171c-.499732.99391.033316 2.19882 1.099413 2.50421l9.06735 2.59308c.7718.2221 1.5992-.1055 2.0101-.79404l4.6364-7.71809-13.59276-1.69909322c-.37203-.04442068-.7385.14991922-.90507.48307422zm16.813263-3.41484 4.6308 7.71809c.4109.68854 1.2382 1.01614 2.0101.79404l9.0673-2.59308c1.0717-.30539 1.5992-1.5103 1.0994-2.50421l-2.3098-4.630859c-.1666-.338707-.5331-.5330475-.9051-.48307422zm11.5493 8.95633v8.5065l-10.2167 2.5542v-13.35393c0-.7385-.5941-1.33262-1.3326-1.33262s-1.3327.59412-1.3327 1.33262v13.35393l-10.21671-2.5542v-8.5065l-2.66524-.76072v9.27282c0 1.2216.83288 2.2877 2.02114 2.5875l11.33281 2.8318c.5664.1388 1.1605.1388 1.7213 0l11.3328-2.8318c1.1883-.2943 2.0212-1.3604 2.0212-2.5875v-9.27282z" fill="#011580"/></svg>