<svg width="20" height="17" viewBox="0 0 20 17" fill="none" xmlns="http://www.w3.org/2000/svg">
<path d="M19.582 8.75C19.582 9.52344 18.9805 10.125 18.25 10.125H5.05859L9.57031 14.6797C10.1289 15.1953 10.1289 16.0977 9.57031 16.6133C9.3125 16.8711 8.96875 17 8.625 17C8.23828 17 7.89453 16.8711 7.63672 16.6133L0.761719 9.73828C0.203125 9.22266 0.203125 8.32031 0.761719 7.80469L7.63672 0.929688C8.15234 0.371094 9.05469 0.371094 9.57031 0.929688C10.1289 1.44531 10.1289 2.34766 9.57031 2.86328L5.05859 7.375H18.25C18.9805 7.375 19.582 8.01953 19.582 8.75Z" fill="#3CBBE3"/>
</svg>
