<svg width="50" height="50" viewBox="0 0 50 50" fill="none" xmlns="http://www.w3.org/2000/svg">
<path fill-rule="evenodd" clip-rule="evenodd" d="M23.5134 34.1212C22.8632 34.8107 21.9569 35.2018 21.0083 35.2034C20.0596 35.1971 19.1534 34.8013 18.5047 34.1071L11.5157 26.6169L16.5478 21.9365L21.0366 26.7583L33.4883 13.515L38.489 18.2284L23.5134 34.1212ZM50 24.9976L44.0035 18.5001L45.2253 9.54923L36.752 7.98649L32.7218 0L24.9977 3.97047L17.2734 0L13.2433 7.98649L4.77458 9.54923L5.97774 18.5001L0 24.9976L5.97774 31.4952L4.77458 40.4507L13.2433 42.0088L17.2734 50L24.9977 46.0248L32.7218 50L36.752 42.0088L45.2253 40.4507L44.0035 31.4952L50 24.9976Z" fill="#001580"/>
</svg>
