<svg width="30" height="30" viewBox="0 0 30 30" fill="none" xmlns="http://www.w3.org/2000/svg">
<path d="M15 0C23.2843 0 30 6.71572 30 15C30 23.2843 23.2843 30 15 30C6.71572 30 0 23.2843 0 15C0 6.71572 6.71572 0 15 0ZM15 3.89277C8.86564 3.89277 3.89277 8.86564 3.89277 15C3.89277 21.1344 8.86564 26.1072 15 26.1072C21.1344 26.1072 26.1072 21.1344 26.1072 15C26.1072 8.86564 21.1344 3.89277 15 3.89277ZM10.8283 13.0536V15C10.8283 15.3087 10.8617 15.612 10.9276 15.9085C11.3467 17.8001 13.0347 19.1711 15.0003 19.1711C16.99 19.1711 18.6933 17.7655 19.0866 15.844C19.1428 15.5682 19.1714 15.2862 19.1714 15V13.0536H23.0641V15C23.0641 15.548 23.0091 16.0904 22.9006 16.6229C22.138 20.3489 18.848 23.0639 15.0003 23.0639C11.1998 23.0639 7.93905 20.4154 7.12728 16.7518C7.00019 16.1799 6.93548 15.5935 6.93548 15V13.0536H10.8283Z" fill="#001580"/>
</svg>
