<?xml version="1.0" encoding="UTF-8"?>
<svg width="519px" height="657px" viewBox="0 0 519 657" version="1.1" xmlns="http://www.w3.org/2000/svg" xmlns:xlink="http://www.w3.org/1999/xlink">
    <title>Flex</title>
    <g id="Page-1" stroke="none" stroke-width="1" fill="none" fill-rule="evenodd">
        <g id="Flex" transform="translate(9, 6)">
            <path d="M27.5,68.25 L163.75,28.5 C177,25 177,25 191.5,28.5 L507,95.5 L507,556.75 L191.5,614 C177,617 177,617 163.75,614 L27.5,580.5 L27.5,68.25 Z" id="Pod" stroke="#011580" stroke-width="6" fill="#FFFFFF" stroke-linejoin="round"></path>
            <line x1="429" y1="78.5" x2="429" y2="570.5" id="Door-2" stroke="#011580" stroke-width="4"></line>
            <line x1="292" y1="50" x2="292" y2="595.5" id="Door-1" stroke="#011580" stroke-width="4"></line>
            <line x1="190" y1="28" x2="190" y2="614.5" id="Corner-2" stroke="#011580" stroke-width="2"></line>
            <line x1="164" y1="28" x2="164" y2="614.5" id="Corner-1" stroke="#011580" stroke-width="2"></line>
            <path d="M429,79 C474.333333,158.066678 497,238.733345 497,321 C497,403.266655 474.333333,486.599989 429,571" id="Path" stroke="#011580" stroke-width="2"></path>
            <path d="M268,321.028164 L284,321.472608 L284,359.527392 L268,359.971836 L268,321.028164 Z" id="Rectangle" stroke="#011580" stroke-width="2"></path>
            <path d="M298,321.528164 L314,321.972608 L314,359.027392 L298,359.471836 L298,321.528164 Z" id="Rectangle-Copy" stroke="#011580" stroke-width="2"></path>
            <path d="M336.030696,350.087765 C336.558745,350.072234 337.043099,350.272208 337.399323,350.608076 C337.752417,350.940993 337.979623,351.407426 337.998711,351.929897 C337.995802,352.5382 337.787752,353.073522 337.432559,353.460535 C337.085141,353.839075 336.599701,354.070165 336.058798,354.086074 L307.969304,354.912235 C307.441255,354.927766 306.956901,354.727792 306.600677,354.391924 C306.247583,354.059007 306.020377,353.592574 306.001289,353.070103 C306.004198,352.4618 306.212248,351.926478 306.567441,351.539465 C306.914859,351.160925 307.400299,350.929835 307.941202,350.913926 Z" id="Rectangle" stroke="#011580" stroke-width="2" fill="#FFFFFF"></path>
            <ellipse id="Oval" stroke="#011580" stroke-width="2" cx="305" cy="305" rx="7" ry="8"></ellipse>
            <ellipse id="Oval-Copy" stroke="#011580" stroke-width="2" cx="305" cy="305" rx="1" ry="1"></ellipse>
            <g id="Arrows" fill="#011580" fill-rule="nonzero">
                <path id="Line" d="M196.919644,-5.7183945 C197.526055,-5.8735423 198.14342,-5.50772118 198.298568,-4.90131014 C198.342179,-4.73085036 198.345505,-4.55257768 198.30828,-4.38061019 L196.856,2.329 L489.778,65.737 L491.231763,59.0266073 C491.259682,58.8976317 491.309835,58.7748596 491.379657,58.6636681 L491.455941,58.5565359 C491.847981,58.068571 492.561366,57.9908086 493.049331,58.3828488 L507.633529,70.1000674 C507.8247,70.2536581 507.960899,70.4651105 508.021682,70.702686 C508.176829,71.309097 507.811008,71.9264624 507.204597,72.0816102 L489.080304,76.7186372 C488.909844,76.7622486 488.731571,76.7655736 488.559604,76.728349 C487.947829,76.5959221 487.559241,75.9926276 487.691668,75.3808528 L489.144,68.67 L196.221,5.262 L194.768184,11.9736353 C194.644586,12.5446251 194.110809,12.9211946 193.542793,12.8611982 L193.420688,12.8415714 C193.24872,12.8043468 193.087781,12.7275948 192.950616,12.6173939 L178.366419,0.900175271 C177.878454,0.508135127 177.800692,-0.205249881 178.192732,-0.693214741 C178.346322,-0.884386163 178.557775,-1.02058486 178.79535,-1.08136757 Z"></path>
                <path id="Line-Copy" d="M-0.0138418334,68.5712047 C0.266088579,68.0113439 0.946873888,67.7844154 1.50673471,68.0643459 C1.72607303,68.174015 1.9039244,68.3518664 2.01359356,68.5712047 L10.3800986,85.3042148 C10.660029,85.8640756 10.4331006,86.5448609 9.87323974,86.8247913 C9.71586504,86.9034787 9.54233115,86.9444444 9.36638089,86.9444444 L2.5,86.944 L2.5,561.055 L9.36638089,561.055556 C9.49834359,561.055556 9.62894707,561.078599 9.75239359,561.123317 L9.87323974,561.175209 C10.4331006,561.455139 10.660029,562.135924 10.3800986,562.695785 L2.01359356,579.428795 C1.9039244,579.648134 1.72607303,579.825985 1.50673471,579.935654 C0.946873888,580.215585 0.266088579,579.988656 -0.0138418334,579.428795 L-8.38034686,562.695785 C-8.45903421,562.538411 -8.5,562.364877 -8.5,562.188926 C-8.5,561.562983 -7.99257259,561.055556 -7.36662916,561.055556 L-0.5,561.055 L-0.5,86.944 L-7.36662916,86.9444444 C-7.95084303,86.9444444 -8.43181627,86.5024188 -8.49334953,85.9345668 L-8.5,85.8110736 C-8.5,85.6351233 -8.45903421,85.4615895 -8.38034686,85.3042148 Z"></path>
                <path id="Line-Copy-2" d="M38.6361171,599.944574 C39.2426835,600.099113 39.609124,600.716111 39.4545848,601.322677 L37.759,607.976 L159.981,639.115 L161.67669,632.462067 C161.820927,631.895939 162.368017,631.538987 162.933482,631.619555 L163.054794,631.6436 C163.225298,631.68704 163.383345,631.769582 163.516421,631.884687 L177.665829,644.123408 C178.139246,644.532897 178.191071,645.248634 177.781582,645.722052 C177.621155,645.907524 177.4049,646.03596 177.165275,646.088082 L158.884654,650.064375 C158.273012,650.197416 157.669328,649.809433 157.536287,649.197791 C157.49889,649.025861 157.502036,648.847585 157.545477,648.677082 L159.24,642.023 L37.018,610.884 L35.3233709,617.537692 C35.2907906,617.66557 35.236216,617.786441 35.1624047,617.895026 L35.0822834,617.999319 C34.6727945,618.472737 33.9570576,618.524561 33.4836401,618.115072 L19.3342325,605.876351 C19.1487604,605.715924 19.0203244,605.499669 18.9682027,605.260044 C18.835162,604.648403 19.2231447,604.044719 19.8347862,603.911678 L38.1154077,599.935384 C38.2873377,599.897987 38.4656137,599.901133 38.6361171,599.944574 Z"></path>
            </g>
        </g>
    </g>
</svg>