<svg fill="none" height="31" viewBox="0 0 30 31" width="30" xmlns="http://www.w3.org/2000/svg"><path clip-rule="evenodd" d="m15 11.2614c2.0489 0 3.8577 1.0472 4.9209 2.633l-3.3266 1.6775c-.4101-.4064-.9734-.6578-1.5943-.6578s-1.1842.2514-1.5943.6578l-3.3266-1.6775c1.0632-1.5858 2.872-2.633 4.9209-2.633zm0-5.63082c4.2443 0 7.9584 2.30216 9.9666 5.72142l-3.2699 1.6482c-1.3987-2.2304-3.8766-3.71697-6.6967-3.71697s-5.29895 1.48657-6.6967 3.71697l-3.26991-1.6482c2.00826-3.41926 5.72231-5.72142 9.96661-5.72142zm0-5.63058c6.4378 0 12.0571 3.56099 15 8.81458l-3.2661 1.64632c-2.3362-4.06379-6.7194-6.80824-11.7339-6.80824-5.01449 0-9.39768 2.74445-11.73387 6.80824l-3.26613-1.64632c2.94292-5.25359 8.56225-8.81458 15-8.81458zm10.5758 16.8893c1.2031 0 2.1869.9731 2.1869 2.1859v11.061h-4.2528l-.001-8.9942-4.0571.0013c-.7241 1.2283-2.0607 2.0524-3.5899 2.0524h-2.2672c-1.5292 0-2.8658-.8241-3.5899-2.0524l-3.75927-.0013v8.9942h-4.25278v-11.061c0-1.2177.98947-2.1859 2.18687-2.1859z" fill="#001580" fill-rule="evenodd"/></svg>