<svg width="20" height="17" viewBox="0 0 20 17" fill="none" xmlns="http://www.w3.org/2000/svg">
<path d="M19.1953 9.73828L12.3203 16.6133C12.0625 16.8711 11.7188 17 11.375 17C10.9883 17 10.6445 16.8711 10.3867 16.6133C9.82812 16.0977 9.82812 15.1953 10.3867 14.6797L14.8984 10.125H1.75C0.976562 10.125 0.375 9.52344 0.375 8.75C0.375 8.01953 0.976562 7.375 1.75 7.375H14.8984L10.3867 2.86328C9.82812 2.34766 9.82812 1.44531 10.3867 0.929688C10.9023 0.371094 11.8047 0.371094 12.3203 0.929688L19.1953 7.80469C19.7539 8.32031 19.7539 9.22266 19.1953 9.73828Z" fill="#3CBBE3"/>
</svg>
