<svg fill="none" height="30" viewBox="0 0 30 30" width="30" xmlns="http://www.w3.org/2000/svg"><path clip-rule="evenodd" d="m15 21.1575c-3.395 0-6.15748-2.7625-6.15748-6.1575s2.76248-6.15747 6.15748-6.15747 6.1575 2.76247 6.1575 6.15747-2.7625 6.1575-6.1575 6.1575zm15-3.7529v-4.8083l-3.7358-.5608c-.2701-1.03-.6798-2.0034-1.2047-2.90125l2.247-3.04003-3.3998-3.40067-3.041 2.24697c-.8978-.52492-1.8702-.93372-2.9012-1.20468l-.5599-3.73584h-4.8092l-.5599 3.73584c-1.031.27096-2.0034.67976-2.90125 1.20468l-3.04098-2.24697-3.39973 3.40067 2.24698 3.04003c-.52492.89785-.93467 1.87125-1.20468 2.90125l-3.73584.5608v4.8083l3.73584.5608c.27001 1.0301.67976 2.0025 1.20468 2.9004l-2.24698 3.0409 3.39973 3.3998 3.04098-2.247c.89785.5249 1.87025.9346 2.90125 1.2047l.5599 3.7358h4.8092l.5599-3.7358c1.031-.2701 2.0034-.6798 2.9012-1.2047l3.041 2.247 3.3998-3.3998-2.247-3.0409c.5249-.8979.9346-1.8703 1.2047-2.9004z" fill="#011580" fill-rule="evenodd"/></svg>