<svg fill="none" height="31" viewBox="0 0 30 31" width="30" xmlns="http://www.w3.org/2000/svg"><path clip-rule="evenodd" d="m27.856 0c1.1826 0 2.1436.962023 2.1436 2.14358v8.30792h-4.1613l-.0003-3.35536-4.9832 4.64036-2.8353-3.04609 4.8651-4.5301-3.5326.00098v-4.16129zm-17.2084 0v4.16129l-3.53292-.00098 4.86572 4.5301-2.83533 3.04609-4.98476-4.64036.00098 3.35536h-4.16129v-8.30792c0-1.181557.961048-2.14358 2.14357-2.14358zm10.2077 18.2973 4.9827 4.6381.0007-3.3531h4.1613v8.308c0 1.1825-.962 2.1436-2.1436 2.1436h-8.505v-4.1613l3.5342-.0004-4.8656-4.5288zm-11.70993 0 2.83533 3.0461-4.86602 4.5288 3.53342.0004v4.1613h-8.50501c-1.181555 0-2.14260216-.9611-2.14260216-2.1436v-8.308h4.16128216l-.00048 3.3531z" fill="#011580" fill-rule="evenodd"/></svg>