<svg width="30" height="30" viewBox="0 0 30 30" fill="none" xmlns="http://www.w3.org/2000/svg">
<path fill-rule="evenodd" clip-rule="evenodd" d="M24.3525 16.3292L19.2248 15.8122C19.573 16.769 19.7611 17.8522 19.7611 19.0213C19.7611 22.4282 17.1944 25.2399 13.8744 25.6566C13.4384 25.7106 13.0564 25.3566 13.1008 24.9225L13.6178 19.7949C12.6609 20.1421 11.5777 20.3302 10.4077 20.3302C7.00181 20.3302 4.19007 17.7635 3.77338 14.4444C3.71936 14.0084 4.07241 13.6255 4.50743 13.6708L9.63506 14.1869C9.28685 13.231 9.09876 12.1478 9.09876 10.9778C9.09876 7.57187 11.6655 4.76014 14.9855 4.34345C15.4215 4.28847 15.8044 4.64247 15.7591 5.07749L15.2421 10.2042C16.199 9.85693 17.2822 9.66884 18.4522 9.66884C21.8581 9.66884 24.6698 12.2356 25.0865 15.5546C25.1405 15.9916 24.7875 16.3726 24.3525 16.3292ZM15 0C6.71629 0 0 6.71533 0 15C0 23.2837 6.71629 30 15 30C23.2847 30 30 23.2837 30 15C30 6.71533 23.2847 0 15 0Z" fill="#011580"/>
</svg>
